<?xml version="1.0" encoding="UTF-8" standalone="no"?>
<!DOCTYPE svg PUBLIC "-//W3C//DTD SVG 1.1//EN" "http://www.w3.org/Graphics/SVG/1.1/DTD/svg11.dtd">
<svg version="1.1" xmlns="http://www.w3.org/2000/svg" xmlns:xlink="http://www.w3.org/1999/xlink" preserveAspectRatio="xMidYMid meet" viewBox="31.262978081513147 84.92481393748031 202.99466680468117 202.9548717317925" width="202.99" height="202.95"><defs><path d="M111.33 126.36L234.26 126.36L234.26 246.44L111.33 246.44L111.33 126.36Z" id="cmO5mS3KP"></path><path d="M147.39 122.87L148.81 122.87L148.81 123.58L147.39 123.58L147.39 122.87Z" id="a3YXTZaYm7"></path><path d="M182.5 135.66L234.26 186.4L184.51 237.14L132.76 186.4L182.5 135.66Z" id="dAd9ekMBq"></path><path d="M130.75 84.92L182.5 135.66L132.76 186.4L81.01 135.66L130.75 84.92Z" id="iQi8xL4sx"></path><path d="M132.76 186.4L184.51 237.14L134.77 287.88L83.02 237.14L132.76 186.4Z" id="b1nUu8vaRF"></path><path d="" id="c1MayxRj5"></path><path d="M81.01 135.66L132.76 186.4L83.02 237.14L31.26 186.4L81.01 135.66Z" id="bcWJj6Obs"></path></defs><g visibility="inherit"><g visibility="inherit"><use xlink:href="#cmO5mS3KP" opacity="1" fill="#8fb4ca" fill-opacity="1"></use></g><g visibility="inherit"><use xlink:href="#a3YXTZaYm7" opacity="1" fill="#79f104" fill-opacity="1"></use></g><g visibility="inherit"><use xlink:href="#dAd9ekMBq" opacity="1" fill="#588c7e" fill-opacity="1"></use></g><g visibility="inherit"><use xlink:href="#iQi8xL4sx" opacity="1" fill="#f2e394" fill-opacity="1"></use></g><g visibility="inherit"><use xlink:href="#b1nUu8vaRF" opacity="1" fill="#588c7e" fill-opacity="1"></use></g><g visibility="inherit"><g><use xlink:href="#c1MayxRj5" opacity="1" fill-opacity="0" stroke="#000000" stroke-width="1" stroke-opacity="1"></use></g></g><g visibility="inherit"><use xlink:href="#bcWJj6Obs" opacity="1" fill="#8c4646" fill-opacity="1"></use></g></g></svg>